<svg xmlns="http://www.w3.org/2000/svg" width="17.929" height="19.367" viewBox="0 0 17.929 19.367">
  <g id="Icon_ionic-md-analytics" data-name="Icon ionic-md-analytics" transform="translate(-2.25 -3.375)">
    <path id="Path_3" data-name="Path 3" d="M16.15,12.337l-3.489,6.209a2.442,2.442,0,0,1,.432,1.41,2.1,2.1,0,0,1-1.921,2.234,2.1,2.1,0,0,1-1.921-2.234,2.838,2.838,0,0,1,.032-.414l-2.3-1.559a1.779,1.779,0,0,1-1.332.624,1.726,1.726,0,0,1-.944-.289L2.25,20.99v2.662A1.869,1.869,0,0,0,3.958,25.64H18.47a1.869,1.869,0,0,0,1.708-1.987v-9.9l-2.345-1.811a1.748,1.748,0,0,1-1.176.47A1.671,1.671,0,0,1,16.15,12.337Z" transform="translate(0 -2.897)" fill="#fff"/>
    <path id="Path_4" data-name="Path 4" d="M5.651,11.241a2.1,2.1,0,0,1,1.92,2.234c0,.1-.008.2-.016.289l2.4,1.564a1.721,1.721,0,0,1,1.632-.451l3.5-6.3a2.464,2.464,0,0,1-.356-1.294,2.1,2.1,0,0,1,1.92-2.234,2.1,2.1,0,0,1,1.92,2.234,2.808,2.808,0,0,1-.052.526l1.652,1.285V5.362a1.869,1.869,0,0,0-1.708-1.987H3.958A1.869,1.869,0,0,0,2.25,5.362V16.035l1.6-1.783a2.588,2.588,0,0,1-.12-.777A2.1,2.1,0,0,1,5.651,11.241Z" transform="translate(0 0)" fill="#fff"/>
  </g>
</svg>
