<svg xmlns="http://www.w3.org/2000/svg" width="17.5" height="20" viewBox="0 0 17.5 20">
  <path id="Icon_awesome-calendar-alt" data-name="Icon awesome-calendar-alt" d="M0,18.125A1.875,1.875,0,0,0,1.875,20h13.75A1.875,1.875,0,0,0,17.5,18.125V7.5H0Zm12.5-7.656A.47.47,0,0,1,12.969,10h1.563a.47.47,0,0,1,.469.469v1.563a.47.47,0,0,1-.469.469H12.969a.47.47,0,0,1-.469-.469Zm0,5A.47.47,0,0,1,12.969,15h1.563a.47.47,0,0,1,.469.469v1.562a.47.47,0,0,1-.469.469H12.969a.47.47,0,0,1-.469-.469Zm-5-5A.47.47,0,0,1,7.969,10H9.531a.47.47,0,0,1,.469.469v1.563a.47.47,0,0,1-.469.469H7.969a.47.47,0,0,1-.469-.469Zm0,5A.47.47,0,0,1,7.969,15H9.531a.47.47,0,0,1,.469.469v1.562a.47.47,0,0,1-.469.469H7.969a.47.47,0,0,1-.469-.469Zm-5-5A.47.47,0,0,1,2.969,10H4.531A.47.47,0,0,1,5,10.469v1.563a.47.47,0,0,1-.469.469H2.969a.47.47,0,0,1-.469-.469Zm0,5A.47.47,0,0,1,2.969,15H4.531A.47.47,0,0,1,5,15.469v1.562a.47.47,0,0,1-.469.469H2.969a.47.47,0,0,1-.469-.469ZM15.625,2.5H13.75V.625A.627.627,0,0,0,13.125,0h-1.25a.627.627,0,0,0-.625.625V2.5h-5V.625A.627.627,0,0,0,5.625,0H4.375A.627.627,0,0,0,3.75.625V2.5H1.875A1.875,1.875,0,0,0,0,4.375V6.25H17.5V4.375A1.875,1.875,0,0,0,15.625,2.5Z" fill="#fff"/>
</svg>
