<svg xmlns="http://www.w3.org/2000/svg" width="32" height="24.6" viewBox="0 0 32 24.6">
  <g id="Icon_ionic-ios-exit" data-name="Icon ionic-ios-exit" transform="translate(0)">
    <path id="Path_5" data-name="Path 5" d="M35.375,9.827v8.231H21.18L24.9,14.373a.987.987,0,0,0-.008-1.415,1.05,1.05,0,0,0-1.452.008L18,18.35a1,1,0,0,0-.292.7.934.934,0,0,0,.079.385A1.067,1.067,0,0,0,18,19.75h0l5.445,5.385a1.043,1.043,0,0,0,1.452.008.981.981,0,0,0,.008-1.415L21.18,20.042h14.2v8.231a3.127,3.127,0,0,1-3.156,3.077H13.281a3.127,3.127,0,0,1-3.156-3.077V9.827A3.127,3.127,0,0,1,13.281,6.75H32.219A3.127,3.127,0,0,1,35.375,9.827Z" transform="translate(-10.125 -6.75)" fill="#fff"/>
    <path id="Path_6" data-name="Path 6" d="M9.211,17.086a.914.914,0,0,1,0,1.828H3.375V17.086Z" transform="translate(21.875 -5.692)" fill="#fff"/>
  </g>
</svg>
