<svg xmlns="http://www.w3.org/2000/svg" width="18" height="24" viewBox="0 0 18 24">
  <path id="Icon_awesome-prescription-bottle" data-name="Icon awesome-prescription-bottle" d="M1.5,9H7.125a.376.376,0,0,1,.375.375v.75a.376.376,0,0,1-.375.375H1.5v3H7.125a.376.376,0,0,1,.375.375v.75A.376.376,0,0,1,7.125,15H1.5v3H7.125a.376.376,0,0,1,.375.375v.75a.376.376,0,0,1-.375.375H1.5v3A1.5,1.5,0,0,0,3,24H15a1.5,1.5,0,0,0,1.5-1.5V6H1.5ZM16.875,0H1.125A1.128,1.128,0,0,0,0,1.125v2.25A1.128,1.128,0,0,0,1.125,4.5h15.75A1.128,1.128,0,0,0,18,3.375V1.125A1.128,1.128,0,0,0,16.875,0Z" fill="#fff"/>
</svg>
