<svg xmlns="http://www.w3.org/2000/svg" width="40" height="40" viewBox="0 0 40 40">
  <g id="Group_83" data-name="Group 83" transform="translate(-1801 -40)">
    <g id="Group_3" data-name="Group 3" transform="translate(448 -228)">
      <rect id="Rectangle_2" data-name="Rectangle 2" width="40" height="40" rx="20" transform="translate(1353 268)" fill="#7b9b69"/>
    </g>
    <path id="Icon_open-person" data-name="Icon open-person" d="M10,0C7.25,0,5,2.8,5,6.25s2.25,6.25,5,6.25,5-2.8,5-6.25S12.75,0,10,0ZM4.775,12.5A5.005,5.005,0,0,0,0,17.5V20H20V17.5a4.988,4.988,0,0,0-4.775-5A7.021,7.021,0,0,1,10,15,7.021,7.021,0,0,1,4.775,12.5Z" transform="translate(1811 48)" fill="#fff"/>
  </g>
</svg>
