<svg xmlns="http://www.w3.org/2000/svg" width="15" height="20" viewBox="0 0 15 20">
  <path id="Icon_awesome-file-prescription" data-name="Icon awesome-file-prescription" d="M8.75,5.313V0H.938A.935.935,0,0,0,0,.938V19.063A.935.935,0,0,0,.938,20H14.063A.935.935,0,0,0,15,19.063V6.25H9.688A.94.94,0,0,1,8.75,5.313Zm2.677,7.011.442.442a.625.625,0,0,1,0,.884L10.7,14.817l1.174,1.174a.625.625,0,0,1,0,.884l-.442.442a.625.625,0,0,1-.884,0L9.375,16.143,8.2,17.317a.625.625,0,0,1-.884,0l-.442-.442a.625.625,0,0,1,0-.884l1.174-1.174L5.732,12.5H5v1.875A.625.625,0,0,1,4.375,15H3.75a.625.625,0,0,1-.625-.625V8.125A.625.625,0,0,1,3.75,7.5H6.875a2.492,2.492,0,0,1,1.193,4.684l1.307,1.307,1.168-1.168A.625.625,0,0,1,11.427,12.323Zm-4.552-1.7H5V9.375H6.875a.625.625,0,0,1,0,1.25ZM15,4.762V5H10V0h.238A.937.937,0,0,1,10.9.273L14.727,4.1A.935.935,0,0,1,15,4.762Z" fill="#fff"/>
</svg>
